<?xml version="1.0" encoding="UTF-8"?><svg id="Layer_1" xmlns="http://www.w3.org/2000/svg" viewBox="0 0 1731.37 1494.06"><defs><style>.cls-1{fill:#1a345f;}.cls-2{fill:#5b85c2;}</style></defs><g><polygon class="cls-2" points="1056.34 829.99 1056.33 830.01 1041.81 806.08 865.72 515.07 838.88 559.43 674.98 830.29 674.8 829.99 674.79 830.01 660.27 806.08 368.08 323.21 368.18 323.06 348.65 290.79 176.55 290.79 30.16 48.86 475.2 48.86 493.72 48.46 650.11 306.91 674.95 347.96 699.67 307.1 865.62 32.84 865.72 33 865.82 32.84 1031.65 306.91 1056.49 347.96 1081.21 307.1 1237.59 48.66 1701.17 48.66 1554.77 290.59 1382.67 290.59 1363.03 323.06 1363.24 323.41 1220.42 559.43 1056.52 830.29 1056.34 829.99"/><path class="cls-1" d="M1671.01,65.66l-125.82,207.93h-172.1l-29.93,49.47,.21,.35-90.39,149.39-31.14,51.46h0s-61,100.81-61,100.81l-17.61,29.1-86.71,143.3-.14-.22-.02,.03-86.71-143.3-17.61-29.1-61-100.81h0s-25.31-41.83-25.31-41.83l-25.43,42.02h0s-61,100.81-61,100.81l-17.61,29.1-86.71,143.3-.14-.22-.02,.03-86.71-143.3-17.61-29.1-61-100.81h0s-31.14-51.45-31.14-51.45l-90.39-149.39,.09-.16-29.82-49.28H186.13L60.31,65.86H475.38l8.88-.19,67.39,111.37,83.91,138.68,37.62,62.16,1.76,2.91,1.65-2.72,37.62-62.16,83.91-138.68,67.51-111.56,.09,.15,.09-.15,67.39,111.37,83.91,138.68,37.62,62.16,1.76,2.91,1.65-2.72,37.62-62.16,83.91-138.68,67.51-111.56h423.83M865.63,0l-29.08,48.06-67.51,111.56-83.91,138.68-10.18,16.82-10.3-17.01-83.91-138.68-67.39-111.37-10.17-16.81-19.65,.42-8.51,.18H0l31.22,51.6,125.82,207.93,9.92,16.4h172.1l9.25,15.28-.09,.16,10.65,17.59,90.39,149.39,31.14,51.46,27.7,45.78h0s33.3,55.03,33.3,55.03l17.61,29.1,86.71,143.3,29.09,48.08,.02-.03,.13,.22,29.09-48.08,86.71-143.3,17.61-29.1,36.23-59.88,21.11-34.88,23.92,39.53h0s33.3,55.03,33.3,55.03l17.61,29.1,86.71,143.3,29.09,48.08,.02-.03,.13,.22,29.09-48.08,86.71-143.3,17.61-29.1,35.41-58.52,25.59-42.29,31.14-51.46,90.39-149.39,10.66-17.61-.21-.35,9.36-15.46h172.1l9.92-16.4,125.82-207.93,31.22-51.6h-503.31l-9.92,16.4-67.51,111.56-83.91,138.68-10.18,16.82-10.3-17.01-83.91-138.68-67.39-111.37L865.86,.08l-.09,.16-.14-.23h0Z"/></g><g><polygon class="cls-2" points="1056.46 1461.11 1056.46 1461.12 1041.85 1437.05 749.68 954.19 749.77 954.04 730.24 921.76 729.95 921.76 719.49 904.48 865.04 663.95 947.74 799.13 1031.7 937.89 1056.53 978.93 1081.26 938.08 1237.63 679.64 1701.21 679.64 1554.82 921.57 1382.71 921.57 1363.07 954.03 1363.28 954.38 1219.86 1191.41 1056.56 1461.27 1056.46 1461.11"/><path class="cls-1" d="M1671.05,696.64l-125.82,207.93h-172.1l-29.93,49.47,.21,.35-90.39,149.39-31.14,51.46h0s-61,100.81-61,100.81l-17.61,29.1-86.71,143.3-.14-.22-.02,.03-86.71-143.3-17.61-29.1-61-100.81h0s-31.14-51.45-31.14-51.45l-90.39-149.39,.09-.16-29.82-49.28h-.29l-.17-.28,125.76-207.82,68.12,111.35,83.91,138.68,37.62,62.16,1.76,2.91,1.65-2.72,37.62-62.16,83.91-138.68,67.51-111.56h423.83m-806.09-65.4l-28.93,47.81-125.76,207.82-10.66,17.61,10.66,17.61,.17,.28,9.92,16.39h.28l9.24,15.27-.09,.16,10.65,17.61,90.39,149.39,31.14,51.46,28.62,47.3h0s32.38,53.51,32.38,53.51l17.61,29.1,86.71,143.3,28.83,47.65,.05-.08,.39,.65,29.06-48.02,86.71-143.3,17.61-29.1,34.04-56.26,26.96-44.55,31.14-51.46,90.39-149.39,10.66-17.61-.21-.35,9.36-15.46h172.1l9.92-16.4,125.82-207.93,31.22-51.6h-503.31l-9.92,16.4-67.51,111.56-83.91,138.68-10.18,16.82-10.3-17.01-83.91-138.68-.04-.07-.04-.07-68.12-111.35-29.16-47.67h0Z"/></g></svg>