<?xml version="1.0" encoding="UTF-8"?><svg id="Layer_1" xmlns="http://www.w3.org/2000/svg" viewBox="0 0 2522.47 714.83"><defs><style>.cls-1{fill:#fff;}.cls-2{fill:#1a345f;}.cls-3{fill:#1a3763;}.cls-4{fill:#5b85c2;}</style></defs><g><rect class="cls-2" x="843.91" y="-319.29" width="96.71" height="1784.42" transform="translate(318.2 1464.46) rotate(-89.93)"/><rect class="cls-1" x="871.75" y="-321.93" width="33.71" height="1747.56" transform="translate(335.62 1439.75) rotate(-89.93)"/></g><path class="cls-3" d="M1760.68,569.82l.08-73.41,33.73,.04,25.76,27.81,71.42,.08s37.73-31.7,43.76-99.14c43.63,7.98,176.52,39.87,176.52,39.87l-23.85,32.7,49.63-30.69,122.96,30.88-9.94,22.81,25.8-13.85,245.92,63.75-349.03,93.78-43.84-34.7,21.78,39.7s-172.64,37.5-216.29,45.38c-5.88-67.46-43.55-85.35-43.55-85.35l-71.42-.08-25.82,27.74-33.73-.04,.1-87.29Z"/><rect class="cls-4" x="1827.62" y="571.43" width="89.27" height="12.9" transform="translate(1292.28 2449.49) rotate(-89.94)"/><path class="cls-1" d="M1893.63,543.19c21.83-6.93,52.61-43.59,56.63-79.29,52.55,11.96,530.55,108.71,530.55,108.71l-587.21-.66,.03-28.77Z"/><rect class="cls-4" x="1799.85" y="571.4" width="89.27" height="12.9" transform="translate(1264.57 2421.69) rotate(-89.94)"/></svg>