<?xml version="1.0" encoding="UTF-8"?><svg id="Layer_1" xmlns="http://www.w3.org/2000/svg" viewBox="0 0 2144.84 519.24"><defs><style>.cls-1{fill:#fff;}.cls-2{fill:#1a345f;}.cls-3{fill:#1a3763;}.cls-4{fill:#5b85c2;}</style></defs><g><rect class="cls-2" x="717.57" y="-633.03" width="82.23" height="1517.28" transform="translate(632.11 884.14) rotate(-89.93)"/><rect class="cls-1" x="741.25" y="-635.28" width="28.66" height="1485.94" transform="translate(646.92 863.13) rotate(-89.93)"/></g><path class="cls-3" d="M1497.09,122.97l.07-62.42,28.68,.03,21.9,23.65,60.73,.07s32.08-26.96,37.21-84.3c37.1,6.79,150.09,33.9,150.09,33.9l-20.28,27.81,42.2-26.09,104.55,26.26-8.45,19.39,21.94-11.78,209.11,54.21-296.78,79.74-37.27-29.51,18.52,33.76s-146.8,31.88-183.91,38.59c-5-57.36-37.03-72.57-37.03-72.57l-60.73-.07-21.95,23.59-28.68-.03,.08-74.22Z"/><rect class="cls-4" x="1554.02" y="124.34" width="75.91" height="10.97" transform="translate(1460.36 1721.65) rotate(-89.94)"/><path class="cls-1" d="M1610.14,100.33c18.56-5.89,44.74-37.06,48.15-67.42,44.69,10.17,451.13,92.44,451.13,92.44l-499.3-.56,.03-24.46Z"/><g><g><path class="cls-3" d="M1583.11,161.69c-8.42,7.26-12.06,21.24-12.17,30.5-.09,9.28,5.64,20.75,3.32,23.43-2.29,2.67-9.35-7.08-12.03-3.65-2.68,3.44,7.82,23.53,9.25,27.83,1.43,4.3-3.15,2-7.56-1.63-4.39-3.63-9.57-5.73-6.6,5.07,2.95,10.8,8.1,28.21,2.09,21.61-6.03-6.62-10.22-17.31-12.74-2.78-2.49,14.53-11.89,51.45-63.51,112.89-51.59,61.44-91.22,96.61-138.77,121.33-47.56,24.73-58.35,22.91-62.18,22.91-3.83-.01,18.3-34.13,19.43-36.42,1.17-2.29,16.18-6.02,19.14-9.55,2.98-3.53-3.43-6.52-6.49-5.16-3.07,1.33-5.74,1.91-2.21-4.69,3.54-6.61,2.59-9.48,9.87-9.66,7.26-.18,25.33,1.45,27.25-1.41,1.92-2.87-.1-2.2-8.04-3.07-7.93-.86-13.67-.87-15.49-5.37-1.8-4.5,7.18,.49,34.29-46.44,7.76-13.11,17.37-29.31,20.31-33.56,1.47-2.12,18.51-3.3,25.25-4.98,7.05-1.76,16.74-4.25,16.15-8.81-.58-4.56-5.99-2.28-8.76-2.02-2.76,.26-16.83-.66-17.8-1.28-.97-.61-.39-3.21,2.32-6.2,2.71-2.98,25.73-36.41,25.7-38.05-.03-1.63,38.79-12.53,43.45-14.85,4.65-2.3,19.67-11.43,12.93-10.25-6.73,1.17-32.73,7.98-35,3.1-2.27-4.86,20.73-50.24,32.21-58.37,11.47-8.15,58.97-47.13,63.72-53,4.75-5.88,24.05-27.71,24.05-27.71l18.62,20.23Z"/><path class="cls-4" d="M1547.34,205.13c.37,3.32,3.01,6.73,4.64,9.47,1.63,2.74,.94,3.76-1.62,4.44-2.58,.67-7.46-2.4-4.8,3.82,2.66,6.22,1.43,4.86-2.27,5.49-3.7,.63-6.24-.65-6.42,3.07-.19,3.71-28.57,63.12-51.6,93.99-23.03,30.87-59.69,84.7-98.3,116.99-38.62,32.28-44.26,33.7-28.99,18.7,15.28-15,52.89-49.91,92.77-103.48,39.86-53.58,39.73-62.15,39.73-62.15l51.43-91.84,5.44,1.48Z"/><path class="cls-1" d="M1562.46,150.49l2.39-4.13,6.33,9.13s-3.89,.76-10.66,16.49c-6.76,15.71-14.54,34.37-17.56,41.14-3.02,6.79-16.65,39.69-37.12,69.89-20.47,30.19-32.83,48.4-46.6,63.06-13.78,14.66-34.04,35.6-50.21,49.29-16.17,13.7-52.32,36-59.09,40.97-6.77,4.96-12.17,2.35-3.62-5.22,8.55-7.58,32.78-45.9,36.22-53.26,3.46-7.36,1.42-5.53,21.41-11.31,19.99-5.79,48.02-21.9,54.27-27.62,6.25-5.71,3.29-5.6-6.52-1.83-9.8,3.76-31.68,4.85-38.74,4.22-7.06-.62-6.7-1.7-1.17-8.84,5.54-7.15,12.4-21.84,16.34-24.57,3.94-2.73,7.31-4.24,17.22-5.86,9.91-1.63,29.81-11.54,41.34-21.2,11.53-9.65,29.58-25.8,16.16-20.48-13.41,5.32-36.09,14.43-45.15,14.9-9.05,.48-7.98,.02-1.32-9.86,6.69-9.86,17.35-29.13,23.77-35.78,6.42-6.66,23.69-19.18,32.54-20.34,8.85-1.17,18.83-2.29,21.26-3.97,2.42-1.67,4.59-3.73,.46-6.11-4.14-2.38-16.56-3.97-6.67-6.43,9.89-2.44,10.85,4.9,12.77-.29,1.91-5.19,12.95-24.71,15.44-29.47,2.5-4.76,6.51-12.51,6.51-12.51Z"/></g><g><path class="cls-3" d="M1578.08,165.61c-10.1,4.64-17.48,17.06-20.16,25.92-2.66,8.88-.36,21.5-3.32,23.43-2.95,1.93-7.02-9.41-10.55-6.84-3.54,2.56,.98,24.77,1.16,29.3,.18,4.54-3.59,1.06-6.8-3.66-3.21-4.71-7.59-8.16-7.75,3.04-.17,11.19-.05,29.35-3.99,21.33-3.96-8.02-5.02-19.47-11.46-6.2-6.43,13.26-25.71,46.11-92.36,90.81-66.63,44.69-114.47,67.47-167.02,78.01-52.56,10.55-62.42,5.8-66.1,4.73-3.68-1.07,27.05-27.7,28.79-29.6,1.75-1.88,17.22-1.28,21.04-3.86,3.83-2.57-1.48-7.21-4.8-6.76-3.32,.43-6.05,.24-.81-5.12,5.23-5.36,5.12-8.39,12.16-6.54,7.03,1.84,23.94,8.44,26.57,6.22,2.64-2.22,.52-2.15-6.87-5.18-7.38-3.03-12.9-4.63-13.39-9.46-.48-4.82,6.76,2.46,45.84-35.1,11.09-10.43,24.83-23.34,28.84-26.6,2-1.63,18.7,1.97,25.64,2.22,7.27,.27,17.26,.57,17.97-3.97,.71-4.55-5.12-3.86-7.85-4.37-2.73-.52-15.99-5.31-16.76-6.17-.77-.86,.52-3.2,3.95-5.32,3.44-2.11,34.83-27.84,35.25-29.42,.43-1.58,40.75-1.26,45.86-2.19,5.11-.93,22.07-5.52,15.28-6.26-6.79-.74-33.66-1.43-34.49-6.74-.83-5.31,33.88-42.5,47.15-47.14,13.28-4.63,69.73-28.89,75.94-33.21,6.2-4.32,30.79-19.93,30.79-19.93l12.27,24.61Z"/><path class="cls-4" d="M1531.66,197.41c-.56,3.3,1.03,7.31,1.82,10.4,.8,3.08-.13,3.87-2.79,3.81-2.65-.06-6.5-4.37-5.67,2.34,.82,6.71,.03,5.06-3.7,4.64-3.73-.42-5.82-2.35-7.03,1.17-1.21,3.52-44.97,52.71-75.67,75.96-30.7,23.26-80.87,64.79-126.93,85.08-46.06,20.29-51.87,20.09-33.04,9.92,18.84-10.17,64.68-33.25,117.85-73.64,53.18-40.39,55.42-48.66,55.42-48.66l74.92-73.94,4.81,2.93Z"/><path class="cls-1" d="M1561.36,149.12l3.43-3.31,3.55,10.53s-3.95-.35-14.81,12.88c-10.86,13.23-23.52,28.97-28.3,34.65-4.79,5.68-27.02,33.5-55.07,56.82-28.05,23.32-44.98,37.38-62.29,47.64-17.31,10.26-42.59,24.75-61.93,33.41-19.34,8.66-60.27,20.04-68.15,22.93-7.88,2.89-12.34-1.11-2.03-6.02,10.31-4.91,44.23-34.99,49.59-41.1,5.36-6.11,2.89-4.92,23.71-4.93,20.82,0,52.21-7.7,59.81-11.45,7.59-3.75,4.72-4.46-5.75-3.57-10.47,.89-31.79-4.14-38.39-6.7-6.61-2.56-5.96-3.5,1.34-8.83,7.3-5.33,17.97-17.54,22.51-19.06,4.54-1.53,8.2-2.04,18.17-.85,9.97,1.19,31.84-2.82,45.59-8.88,13.75-6.06,35.59-16.57,21.22-15.18-14.37,1.39-38.68,3.83-47.51,1.77-8.83-2.05-7.68-2.2,1.48-9.83,9.16-7.63,24.75-23.17,32.77-27.78,8.02-4.61,28.08-11.84,36.91-10.51,8.83,1.34,18.73,3.03,21.52,2.09,2.79-.94,5.44-2.31,2.14-5.74-3.31-3.43-14.8-8.42-4.61-8.02,10.19,.4,9.06,7.72,12.35,3.26,3.29-4.46,19.31-20.14,23.03-24.02,3.72-3.88,9.73-10.21,9.73-10.21Z"/></g></g><rect class="cls-4" x="1530.4" y="124.32" width="75.91" height="10.97" transform="translate(1436.8 1698.01) rotate(-89.94)"/></svg>