<?xml version="1.0" encoding="UTF-8"?><svg id="Layer_1" xmlns="http://www.w3.org/2000/svg" viewBox="0 0 1731.32 931.64"><defs><style>.cls-1{fill:#fff;}.cls-2{fill:#1a345f;}.cls-3{fill:#5b85c2;}</style></defs><polygon class="cls-3" points="1498.91 134.11 1247.18 134.11 1179.67 245.67 1095.76 384.35 1058.14 446.51 1056.49 449.24 1054.73 446.32 1017.11 384.16 933.2 245.48 865.81 134.11 865.72 134.26 865.63 134.11 798.12 245.67 714.22 384.35 676.59 446.51 674.95 449.24 673.18 446.32 635.56 384.16 551.65 245.48 484.26 134.11 475.38 134.3 232.41 134.3 60.31 134.3 186.13 342.23 358.23 342.23 388.05 391.51 387.96 391.67 478.35 541.05 509.49 592.51 509.49 592.51 570.49 693.32 588.1 722.42 674.81 865.72 674.83 865.69 674.97 865.92 761.68 722.61 779.29 693.51 840.29 592.7 840.29 592.7 865.72 550.68 891.03 592.51 891.03 592.51 952.03 693.32 969.64 722.42 1056.36 865.72 1056.38 865.69 1056.51 865.92 1143.22 722.61 1160.84 693.51 1221.84 592.7 1221.84 592.7 1252.97 541.25 1343.37 391.86 1343.15 391.51 1373.09 342.04 1545.19 342.04 1671.01 134.11 1498.91 134.11"/><path class="cls-2" d="M1481.24,34.42l-60.33,99.7h250.1l-125.82,207.93h-172.1l-29.93,49.47,.21,.35-90.39,149.39-31.14,51.46h0s-61,100.81-61,100.81l-17.61,29.1-86.71,143.3-.14-.22-.02,.03-86.71-143.3-17.61-29.1-20.59-34.03-64.7,106.93-.14-.22-.02,.03-65.59-108.39-21.71,35.87-17.61,29.1-86.71,143.3-.14-.22-.02,.03-86.71-143.3-17.61-29.1-61-100.81h0s-31.14-51.45-31.14-51.45l-90.39-149.39,.09-.16-29.82-49.28H186.13L60.31,134.3h252.1l-60.33-99.7h415.07l8.88-.19,67.39,111.37,57.57,95.15,64.64-106.82,.09,.15,.09-.15,65.64,108.47,58.45-96.61,67.51-111.56h423.83M694.95,0l-19.65,.42-8.51,.18H191.77l31.22,51.6,29.1,48.09H0l31.22,51.6,125.82,207.93,9.92,16.4h172.1l9.24,15.27-.09,.16,10.66,17.61,90.39,149.39,31.14,51.46,29.21,48.28,31.79,52.53,17.61,29.1,86.71,143.3,28.65,47.34,.02-.04,.58,.96,29.09-48.07,86.71-143.3,10.23-16.9,36.5,60.32,28.97,47.87,.05-.08,.26,.42,29.06-48.02,35.61-58.86,9.11,15.06,86.71,143.3,21.36,35.3,7.86,13.01,29.12-48.12,86.71-143.3,17.61-29.1,35.79-59.14h0s25.21-41.67,25.21-41.67l31.14-51.46,90.39-149.39,10.66-17.62-.21-.35,9.35-15.45h172.1l9.92-16.4,125.82-207.93,31.22-51.6h-250.1l29.1-48.09L1541.55,.42h-503.31l-9.92,16.4-67.51,111.56-29.36,48.53-36.55-60.4-29.04-47.99-.09,.16-.14-.23-29.08,48.06-35.55,58.74-28.48-47.07-67.39-111.37-10.17-16.81h0Z"/><g><polygon class="cls-1" points="865.61 798.78 865.59 798.81 851.04 774.83 558.85 291.96 558.95 291.81 539.42 259.54 367.32 259.54 220.93 17.61 665.97 17.61 684.49 17.21 840.88 275.67 865.72 316.71 890.44 275.86 1046.82 17.42 1510.39 17.42 1364 259.35 1191.9 259.35 1172.26 291.81 1172.47 292.16 865.76 799.02 865.61 798.78"/><path class="cls-2" d="M1480.24,34.42l-125.82,207.93h-172.1l-29.93,49.47,.21,.35-90.39,149.39-31.14,51.46h0s-61,100.81-61,100.81l-17.61,29.1-86.71,143.3-.14-.22-.02,.03-86.71-143.3-17.61-29.1-61-100.81h0s-31.14-51.45-31.14-51.45l-90.39-149.39,.09-.16-29.82-49.28h-172.1L251.08,34.61h415.07l8.88-.19,67.39,111.37,83.91,138.68,37.62,62.16,1.76,2.91,1.65-2.72,37.62-62.16,83.91-138.68,67.51-111.56h423.83M693.95,0l-19.65,.42-8.52,.18H190.77l31.22,51.6,125.82,207.93,9.92,16.4h172.1l9.23,15.25-.09,.16,10.66,17.62,90.39,149.39,31.14,51.46,29.93,49.46h0s31.07,51.35,31.07,51.35l17.61,29.1,86.71,143.3,29,47.93,.04-.07,.22,.37,29.07-48.04,86.71-143.3,17.61-29.1,32.29-53.37,28.71-47.44,31.14-51.46,90.39-149.39,10.66-17.62-.21-.35,9.35-15.46h172.1l9.92-16.4,125.82-207.93L1540.55,.42h-503.31l-9.92,16.4-67.51,111.56-83.91,138.68-10.18,16.82-10.3-17.01-83.91-138.68-67.39-111.37-10.17-16.81h0Z"/></g></svg>