<?xml version="1.0" encoding="UTF-8"?><svg id="Layer_1" xmlns="http://www.w3.org/2000/svg" viewBox="0 0 1349.78 831.86"><defs><style>.cls-1{fill:#fff;}.cls-2{fill:#1a345f;}</style></defs><polygon class="cls-1" points="674.84 798.78 674.82 798.81 660.27 774.83 368.08 291.96 368.18 291.81 348.65 259.54 176.55 259.54 30.16 17.61 475.2 17.61 493.72 17.21 650.11 275.67 674.95 316.71 699.67 275.86 856.05 17.42 1319.62 17.42 1173.23 259.35 1001.13 259.35 981.48 291.81 981.7 292.16 674.99 799.02 674.84 798.78"/><path class="cls-2" d="M1289.47,34.42l-125.82,207.93h-172.1l-29.93,49.47,.21,.35-90.39,149.39-31.14,51.46h0s-61,100.81-61,100.81l-17.61,29.1-86.71,143.3-.14-.22-.02,.03-86.71-143.3-17.61-29.1-61-100.81h0s-31.14-51.45-31.14-51.45l-90.39-149.39,.09-.16-29.82-49.28H186.13L60.31,34.61H475.38l8.88-.19,67.39,111.37,83.91,138.68,37.62,62.16,1.76,2.91,1.65-2.72,37.62-62.16,83.91-138.68,67.51-111.56h423.83M503.18,0l-19.65,.42-8.52,.18H0L31.22,52.21l125.82,207.93,9.92,16.4h172.1l9.23,15.25-.09,.16,10.66,17.62,90.39,149.39,31.14,51.46,29.93,49.46h0s31.07,51.35,31.07,51.35l17.61,29.1,86.71,143.3,29,47.93,.04-.07,.22,.37,29.07-48.04,86.71-143.3,17.61-29.1,32.29-53.37,28.71-47.44,31.14-51.46,90.39-149.39,10.66-17.62-.21-.35,9.35-15.46h172.1l9.92-16.4,125.82-207.93L1349.78,.42h-503.31l-9.92,16.4-67.51,111.56-83.91,138.68-10.18,16.82-10.3-17.01-83.91-138.68-67.39-111.37L503.18,0h0Z"/></svg>