<?xml version="1.0" encoding="UTF-8"?><svg id="Layer_1" xmlns="http://www.w3.org/2000/svg" viewBox="0 0 2148.49 1494.06"><defs><style>.cls-1{fill:#fff;}.cls-2{fill:#1a345f;}.cls-3{fill:#1a3763;}.cls-4{fill:#5b85c2;}</style></defs><g><g><g><rect class="cls-2" x="92.13" y="699.19" width="1517.28" height="82.23" transform="translate(-204.87 343.46) rotate(-20.43)"/><rect class="cls-1" x="98.62" y="710.27" width="1485.94" height="28.66" transform="translate(-199.97 339.26) rotate(-20.43)"/></g><path class="cls-3" d="M1541.5,479.25l-21.79-58.49,26.88-10.01,28.79,14.48,56.91-21.2s20.61-36.48,5.33-91.99c37.13-6.63,152.46-20.8,152.46-20.8l-9.26,33.14,30.39-39.22,107.13-12.02-1.12,21.12,16.43-18.72,214.85-22.45-250.06,178.62-45.25-14.58,29.17,25.14s-126.33,81.27-158.75,100.55c-24.77-51.97-60.1-55.01-60.1-55.01l-56.91,21.2-12.3,29.78-26.88,10.01-25.91-69.55Z"/><rect class="cls-4" x="1627.29" y="414.49" width="10.97" height="75.91" transform="translate(-55.22 598.54) rotate(-20.43)"/><path class="cls-1" d="M1639.46,418.45c15.33-12.02,28.93-50.38,21.49-80.01,45.42-6.12,454.93-71.39,454.93-71.39l-467.88,174.33-8.54-22.92Z"/><rect class="cls-4" x="1605.16" y="422.74" width="10.97" height="75.91" transform="translate(-59.49 591.33) rotate(-20.43)"/></g><g><g><polygon class="cls-4" points="1076.51 830.09 1076.51 830.1 1061.94 806.08 912.58 559.24 885.85 515.07 859 559.43 695.1 830.3 694.97 830.09 694.97 830.1 680.39 806.08 531.03 559.24 388.21 323.21 388.31 323.06 368.78 290.79 196.68 290.79 50.28 48.86 495.33 48.86 513.85 48.46 670.24 306.91 695.08 347.96 719.8 307.1 885.75 32.84 885.85 33 885.95 32.84 1051.78 306.91 1076.62 347.96 1101.34 307.1 1257.72 48.66 1721.29 48.66 1574.9 290.59 1402.8 290.59 1383.15 323.06 1383.37 323.41 1240.55 559.43 1076.64 830.3 1076.51 830.09"/><path class="cls-2" d="M1691.14,65.66l-125.82,207.93h-172.1l-29.93,49.47,.21,.35-90.39,149.39-31.14,51.46h0s-61,100.81-61,100.81l-17.61,29.1-86.71,143.3-.14-.22-.02,.03-86.71-143.3-17.61-29.1-61-100.81h0s-25.31-41.83-25.31-41.83l-25.43,42.02h0s-61,100.81-61,100.81l-17.61,29.1-86.71,143.3-.14-.22-.02,.03-86.71-143.3-17.61-29.1-61-100.81h0s-31.14-51.45-31.14-51.45l-90.39-149.39,.09-.16-29.82-49.28H206.26L80.44,65.86H495.51l8.88-.19,67.39,111.37,83.91,138.68,37.62,62.16,1.76,2.91,1.65-2.72,37.62-62.16,83.91-138.68,67.51-111.56,.09,.15,.09-.15,67.39,111.37,83.91,138.68,37.62,62.16,1.76,2.91,1.65-2.72,37.62-62.16,83.91-138.68,67.51-111.56h423.83M885.75,0l-29.08,48.06-67.51,111.56-83.91,138.68-10.18,16.82-10.3-17.01-83.91-138.68-67.39-111.37-10.17-16.81-19.65,.42-8.51,.18H20.13l31.22,51.6,125.82,207.93,9.92,16.4h172.1l9.23,15.25-.09,.16,10.67,17.63,90.39,149.39,31.14,51.46,25.21,41.67h0s35.79,59.14,35.79,59.14l17.61,29.1,86.71,143.3,28.97,47.87,.03-.06,.26,.42,29.07-48.05,86.71-143.3,17.61-29.1,37.4-61.81,19.94-32.95,21.43,35.42h0s35.79,59.14,35.79,59.14l17.61,29.1,86.71,143.3,28.97,47.87,.03-.06,.26,.42,29.08-48.05,86.71-143.3,17.61-29.1,36.59-60.46,24.42-40.35,31.14-51.46,90.39-149.39,10.66-17.62-.21-.35,9.35-15.45h172.1l9.92-16.4,125.82-207.93,31.22-51.6h-503.31l-9.92,16.4-67.51,111.56-83.91,138.68-10.18,16.82-10.3-17.01-83.91-138.68-67.39-111.37L885.99,.08l-.09,.16-.14-.23h0Z"/></g><g><polygon class="cls-4" points="1076.48 1460.85 1076.45 1460.89 1061.98 1437.05 769.8 954.19 769.89 954.03 750.37 921.76 750.08 921.76 739.62 904.48 885.17 663.95 967.87 799.13 1051.82 937.88 1076.66 978.93 1101.39 938.08 1257.76 679.64 1721.34 679.64 1574.95 921.57 1402.84 921.57 1383.2 954.03 1383.41 954.38 1076.71 1461.23 1076.48 1460.85"/><path class="cls-2" d="M1691.18,696.64l-125.82,207.93h-172.1l-29.93,49.47,.21,.35-90.39,149.39-31.14,51.46h0s-61,100.81-61,100.81l-17.61,29.1-86.71,143.3-.14-.22-.02,.03-86.71-143.3-17.61-29.1-61-100.81h0s-31.14-51.45-31.14-51.45l-90.39-149.39,.09-.16-29.82-49.28h-.29l-.17-.28,125.76-207.82,68.12,111.35,83.91,138.68,37.62,62.16,1.76,2.91,1.65-2.72,37.62-62.16,83.91-138.68,67.51-111.56h423.83m-806.09-65.4l-28.93,47.81-125.76,207.82-10.65,17.6,10.65,17.6,.17,.28,9.92,16.4h.29l9.23,15.25-.09,.16,10.67,17.63,90.39,149.39,31.14,51.46,26.74,44.19,34.26,56.62,17.61,29.1,86.71,143.3,28.75,47.5,.05-.08,.48,.79,29.06-48.02,86.71-143.3,17.61-29.1,37.65-62.22,23.35-38.59,31.14-51.46,90.39-149.39,10.66-17.61-.21-.35,9.35-15.46h172.1l9.92-16.4,125.82-207.93,31.22-51.6h-503.31l-9.92,16.4-67.51,111.56-83.91,138.68-10.18,16.82-10.3-17.01-83.91-138.68-.04-.07-.04-.07-68.12-111.35-29.16-47.67h0Z"/></g></g></g><g><g><path class="cls-3" d="M1598.39,477.26c-4.99,9.11-3.61,22.53-.67,30.68,2.95,8.15,11.72,16.32,10.57,19.42-1.13,3.09-10.5-3.14-11.73,.75-1.22,3.89,14.54,18.03,17.21,21.33,2.66,3.3-2.1,2.78-7.15,1.05-5.03-1.74-10.25-1.89-4.11,6.6,6.11,8.49,16.32,22.04,8.9,18.23-7.44-3.82-14.61-11.81-12.06,1.73,2.57,13.53,6.43,48.92-18.64,119.59-25.05,70.66-48.23,114.4-81.76,151.6-33.54,37.2-43.58,39.14-46.93,40.4-3.35,1.24,4.85-35.86,5.09-38.24,.27-2.39,12.19-10.57,13.63-14.62,1.45-4.06-5.13-4.58-7.37-2.4-2.25,2.17-4.4,3.55-3.47-3.39,.94-6.94-.84-9.15,5.48-11.68,6.3-2.53,22.65-7.02,23.39-10.15,.74-3.14-.81-1.89-8.04-.05-7.22,1.84-12.25,3.71-15.32,.37-3.04-3.35,6.44-1.92,14.82-51.87,2.51-14.01,5.61-31.34,6.79-36.02,.59-2.34,15.13-8.95,20.47-12.63,5.6-3.85,13.26-9.2,11.25-13-2-3.8-5.99-.04-8.33,1.1-2.33,1.13-14.95,4.93-16,4.71-1.05-.21-1.39-2.68,0-6.19,1.4-3.5,10.61-40.29,10.04-41.71-.56-1.42,29.85-23.66,33.17-27.21,3.31-3.54,13.47-16.44,7.96-13.2-5.51,3.23-26.04,17.7-29.62,14.17-3.58-3.51,1.71-50.76,9.09-61.63,7.37-10.88,36.19-60.54,38.43-67.24,2.24-6.7,11.98-32.12,11.98-32.12l22.92,11.62Z"/><path class="cls-4" d="M1581.31,526.99c1.41,2.78,4.84,4.91,7.16,6.77,2.32,1.87,2.06,2.98,.04,4.42-2.04,1.43-7.31,.34-2.95,4.92,4.36,4.57,2.84,3.78-.19,5.55-3.03,1.76-5.67,1.48-4.62,4.79,1.05,3.31-4.35,64.6-14.41,99.14-10.06,34.55-24.53,93.66-47.75,134.56-23.24,40.89-27.71,43.97-19.26,25.85,8.47-18.13,29.96-60.99,47.33-120.92,17.36-59.94,14.43-67.39,14.43-67.39l14.96-97.21,5.25-.48Z"/><path class="cls-1" d="M1576.66,474.22l.74-4.4,8.53,5.92s-3.15,1.94-3.93,17.92c-.77,15.97-1.48,34.84-1.91,41.76-.43,6.93-1.58,40.19-9.62,73.32-8.04,33.12-12.9,53.1-20.15,70.44-7.26,17.34-18.14,42.3-27.82,59.57-9.67,17.28-34.02,48.63-38.32,55.2-4.3,6.56-9.88,6.04-4.88-3.39,5-9.43,13.67-50.9,14.27-58.47,.62-7.57-.57-5.3,15.04-16.91,15.6-11.61,34.86-34.88,38.46-41.93,3.6-7.04,1.05-5.97-6.3,.53-7.35,6.5-26.14,14.61-32.53,16.37-6.38,1.77-6.42,.71-3.92-7.36,2.51-8.07,3.71-23.17,6.26-26.85s5.01-6.1,13.15-10.76c8.14-4.67,22.31-19.86,29.25-32.08,6.93-12.21,17.45-32.26,7.44-23.21-10,9.05-26.87,24.44-34.64,27.81-7.77,3.38-6.98,2.63-4.38-8.2,2.63-10.82,5.65-31.17,9.1-39.1,3.44-7.93,14.46-24.54,21.82-28.45,7.36-3.92,15.73-8.17,17.3-10.43,1.57-2.26,2.79-4.76-1.59-5.5-4.4-.73-15.79,1.94-7.94-3.45,7.86-5.37,11.1,.74,11.08-4.43-.03-5.17,3.25-25.86,3.87-30.85,.63-4.98,1.61-13.08,1.61-13.08Z"/></g><g><path class="cls-3" d="M1595.28,482.34c-7.32,7.36-9.72,20.65-9.16,29.28,.58,8.65,6.72,18.94,4.76,21.6-1.95,2.65-9.23-5.94-11.48-2.54-2.26,3.4,8.96,21.36,10.6,25.27,1.64,3.91-2.79,2.1-7.15-.98-4.35-3.07-9.32-4.66-5.79,5.2,3.52,9.85,9.56,25.7,3.49,19.98-6.09-5.73-10.76-15.4-12.06-1.68-1.29,13.71-7.42,48.77-51.13,109.7-43.69,60.92-78.11,96.51-120.65,122.93-42.55,26.43-52.73,25.5-56.3,25.77-3.57,.26,14.61-33.1,15.51-35.32,.92-2.22,14.65-6.76,17.15-10.26,2.51-3.5-3.66-5.83-6.42-4.34-2.76,1.46-5.22,2.19-2.38-4.22,2.83-6.4,1.74-9.02,8.5-9.7,6.76-.69,23.71-.45,25.29-3.25,1.59-2.81-.25-2.05-7.71-2.29-7.45-.23-12.8,.16-14.81-3.89-2-4.06,6.72-.06,28.63-45.72,6.3-12.76,14.1-28.55,16.54-32.72,1.22-2.08,17.01-4.4,23.17-6.44,6.45-2.14,15.29-5.15,14.42-9.36-.87-4.21-5.74-1.7-8.3-1.26-2.56,.44-15.73,.58-16.69,.08-.95-.5-.6-2.97,1.72-5.95,2.32-2.98,21.37-35.76,21.23-37.28s35.25-14.44,39.42-16.92,17.51-12.06,11.32-10.48c-6.19,1.57-29.93,9.76-32.4,5.39s15.74-48.29,25.85-56.69c10.11-8.4,51.58-48.1,55.6-53.92,4.01-5.81,20.43-27.52,20.43-27.52l18.79,17.52Z"/><path class="cls-4" d="M1565.06,525.36c.59,3.07,3.29,6.07,5,8.5,1.71,2.44,1.15,3.43-1.19,4.25-2.34,.81-7.11-1.7-4.2,3.91,2.91,5.6,1.68,4.42-1.72,5.27-3.4,.85-5.86-.15-5.77,3.32,.09,3.48-22.11,60.84-41.37,91.25-19.26,30.4-49.58,83.17-83.26,116-33.68,32.83-38.83,34.56-25.67,19.49,13.16-15.06,45.73-50.27,79.05-103.02,33.33-52.75,32.58-60.73,32.58-60.73l41.38-89.23,5.17,.99Z"/><path class="cls-1" d="M1575.25,473.38l1.92-4.02,6.55,8.06s-3.57,.99-8.75,16.12c-5.18,15.13-11.1,33.05-13.43,39.59-2.33,6.54-12.68,38.16-29.6,67.75-16.92,29.59-27.14,47.43-38.93,62.08-11.79,14.64-29.18,35.6-43.27,49.51-14.09,13.91-46.19,37.26-52.14,42.37-5.95,5.11-11.16,3.06-3.74-4.61,7.42-7.67,27.26-45.09,29.95-52.2,2.69-7.1,.92-5.25,19.14-12.07,18.22-6.82,43.18-23.82,48.6-29.59,5.42-5.77,2.67-5.45-6.2-1.24-8.87,4.21-29.18,6.78-35.8,6.7s-6.36-1.11-1.72-8.16c4.65-7.05,9.99-21.23,13.47-24.05,3.47-2.82,6.51-4.47,15.63-6.69,9.12-2.22,26.95-12.88,37-22.69,10.05-9.81,25.73-26.15,13.6-20.23-12.12,5.92-32.6,16-41,17.1-8.4,1.09-7.44,.59-1.92-9.09,5.52-9.68,14.08-28.38,19.59-35.04,5.51-6.66,20.7-19.56,28.87-21.27,8.16-1.72,17.38-3.48,19.52-5.21,2.14-1.74,4.01-3.8-.01-5.73-4.02-1.92-15.71-2.53-6.66-5.51s10.46,3.79,11.87-1.18c1.42-4.98,10.31-23.94,12.29-28.56,1.98-4.62,5.17-12.12,5.17-12.12Z"/></g></g></svg>